<svg width="715" height="457" viewBox="0 0 715 457" fill="none" xmlns="http://www.w3.org/2000/svg">
<rect width="715" height="457" fill="white"/>
<path d="M21.4375 31.3466V29.3466L29.4375 25.8239V28.125L23.9602 30.3239L24.0341 30.2045V30.4886L23.9602 30.3693L29.4375 32.5682V34.8693L21.4375 31.3466ZM34.3295 35.1648C33.7727 35.1648 33.2765 35.0682 32.8409 34.875C32.4053 34.678 32.0606 34.3883 31.8068 34.0057C31.5568 33.6193 31.4318 33.1383 31.4318 32.5625C31.4318 32.0777 31.5208 31.6705 31.6989 31.3409C31.8769 31.0114 32.1193 30.7462 32.4261 30.5455C32.733 30.3447 33.0814 30.1932 33.4716 30.0909C33.8655 29.9886 34.2784 29.9167 34.7102 29.875C35.2178 29.822 35.6269 29.7727 35.9375 29.7273C36.2481 29.678 36.4735 29.6061 36.6136 29.5114C36.7538 29.4167 36.8239 29.2765 36.8239 29.0909V29.0568C36.8239 28.697 36.7102 28.4186 36.483 28.2216C36.2595 28.0246 35.9413 27.9261 35.5284 27.9261C35.0928 27.9261 34.7462 28.0227 34.4886 28.2159C34.2311 28.4053 34.0606 28.6439 33.9773 28.9318L31.7386 28.75C31.8523 28.2197 32.0758 27.7614 32.4091 27.375C32.7424 26.9848 33.1723 26.6856 33.6989 26.4773C34.2292 26.2652 34.8428 26.1591 35.5398 26.1591C36.0246 26.1591 36.4886 26.2159 36.9318 26.3295C37.3788 26.4432 37.7746 26.6193 38.1193 26.858C38.4678 27.0966 38.7424 27.4034 38.9432 27.7784C39.1439 28.1496 39.2443 28.5947 39.2443 29.1136V35H36.9489V33.7898H36.8807C36.7405 34.0625 36.553 34.303 36.3182 34.5114C36.0833 34.7159 35.8011 34.8769 35.4716 34.9943C35.142 35.108 34.7614 35.1648 34.3295 35.1648ZM35.0227 33.4943C35.3788 33.4943 35.6932 33.4242 35.9659 33.2841C36.2386 33.1402 36.4527 32.947 36.608 32.7045C36.7633 32.4621 36.8409 32.1875 36.8409 31.8807V30.9545C36.7652 31.0038 36.661 31.0492 36.5284 31.0909C36.3996 31.1288 36.2538 31.1648 36.0909 31.1989C35.928 31.2292 35.7652 31.2576 35.6023 31.2841C35.4394 31.3068 35.2917 31.3277 35.1591 31.3466C34.875 31.3883 34.6269 31.4545 34.4148 31.5455C34.2027 31.6364 34.0379 31.7595 33.9205 31.9148C33.803 32.0663 33.7443 32.2557 33.7443 32.483C33.7443 32.8125 33.8636 33.0644 34.1023 33.2386C34.3447 33.4091 34.6515 33.4943 35.0227 33.4943ZM41.1222 35V26.2727H43.4688V27.7955H43.5597C43.7188 27.2538 43.9858 26.8447 44.3608 26.5682C44.7358 26.2879 45.1676 26.1477 45.6562 26.1477C45.7775 26.1477 45.9081 26.1553 46.0483 26.1705C46.1884 26.1856 46.3116 26.2064 46.4176 26.233V28.3807C46.304 28.3466 46.1468 28.3163 45.946 28.2898C45.7453 28.2633 45.5616 28.25 45.3949 28.25C45.0388 28.25 44.7206 28.3277 44.4403 28.483C44.1638 28.6345 43.9441 28.8466 43.7812 29.1193C43.6222 29.392 43.5426 29.7064 43.5426 30.0625V35H41.1222ZM52.7486 26.2727V28.0909H47.4929V26.2727H52.7486ZM48.6861 24.1818H51.1065V32.3182C51.1065 32.5417 51.1406 32.7159 51.2088 32.8409C51.277 32.9621 51.3717 33.0473 51.4929 33.0966C51.6179 33.1458 51.7618 33.1705 51.9247 33.1705C52.0384 33.1705 52.152 33.161 52.2656 33.142C52.3793 33.1193 52.4664 33.1023 52.527 33.0909L52.9077 34.892C52.7865 34.9299 52.616 34.9735 52.3963 35.0227C52.1766 35.0758 51.9096 35.108 51.5952 35.1193C51.0118 35.142 50.5005 35.0644 50.0611 34.8864C49.6255 34.7083 49.2865 34.4318 49.044 34.0568C48.8016 33.6818 48.6823 33.2083 48.6861 32.6364V24.1818ZM54.3253 35V26.2727H56.7457V35H54.3253ZM55.5412 25.1477C55.1813 25.1477 54.8726 25.0284 54.6151 24.7898C54.3613 24.5473 54.2344 24.2576 54.2344 23.9205C54.2344 23.5871 54.3613 23.3011 54.6151 23.0625C54.8726 22.8201 55.1813 22.6989 55.5412 22.6989C55.901 22.6989 56.2079 22.8201 56.4616 23.0625C56.7192 23.3011 56.848 23.5871 56.848 23.9205C56.848 24.2576 56.7192 24.5473 56.4616 24.7898C56.2079 25.0284 55.901 25.1477 55.5412 25.1477ZM62.6278 35.1705C61.7339 35.1705 60.965 34.9811 60.321 34.6023C59.6809 34.2197 59.1884 33.6894 58.8438 33.0114C58.5028 32.3333 58.3324 31.553 58.3324 30.6705C58.3324 29.7765 58.5047 28.9924 58.8494 28.3182C59.1979 27.6402 59.6922 27.1117 60.3324 26.733C60.9725 26.3504 61.7339 26.1591 62.6165 26.1591C63.3778 26.1591 64.0445 26.2973 64.6165 26.5739C65.1884 26.8504 65.6411 27.2386 65.9744 27.7386C66.3078 28.2386 66.4915 28.8258 66.5256 29.5H64.2415C64.1771 29.0644 64.0066 28.714 63.7301 28.4489C63.4574 28.1799 63.0994 28.0455 62.6562 28.0455C62.2812 28.0455 61.9536 28.1477 61.6733 28.3523C61.3968 28.553 61.1809 28.8466 61.0256 29.233C60.8703 29.6193 60.7926 30.0871 60.7926 30.6364C60.7926 31.1932 60.8684 31.6667 61.0199 32.0568C61.1752 32.447 61.393 32.7443 61.6733 32.9489C61.9536 33.1534 62.2812 33.2557 62.6562 33.2557C62.9328 33.2557 63.1809 33.1989 63.4006 33.0852C63.6241 32.9716 63.8078 32.8068 63.9517 32.5909C64.0994 32.3712 64.196 32.108 64.2415 31.8011H66.5256C66.4877 32.4678 66.3059 33.0549 65.9801 33.5625C65.6581 34.0663 65.2131 34.4602 64.6449 34.7443C64.0767 35.0284 63.4044 35.1705 62.6278 35.1705ZM70.4957 23.3636V35H68.0753V23.3636H70.4957ZM76.4119 35.1705C75.5142 35.1705 74.7415 34.9886 74.0938 34.625C73.4498 34.2576 72.9536 33.7386 72.6051 33.0682C72.2566 32.3939 72.0824 31.5966 72.0824 30.6761C72.0824 29.7784 72.2566 28.9905 72.6051 28.3125C72.9536 27.6345 73.4441 27.1061 74.0767 26.7273C74.7131 26.3485 75.4593 26.1591 76.3153 26.1591C76.8911 26.1591 77.4271 26.2519 77.9233 26.4375C78.4233 26.6193 78.8589 26.8939 79.2301 27.2614C79.6051 27.6288 79.8968 28.0909 80.1051 28.6477C80.3134 29.2008 80.4176 29.8485 80.4176 30.5909V31.2557H73.0483V29.7557H78.1392C78.1392 29.4072 78.0634 29.0985 77.9119 28.8295C77.7604 28.5606 77.5502 28.3504 77.2812 28.1989C77.0161 28.0436 76.7074 27.9659 76.3551 27.9659C75.9877 27.9659 75.6619 28.0511 75.3778 28.2216C75.0975 28.3883 74.8778 28.6136 74.7188 28.8977C74.5597 29.178 74.4782 29.4905 74.4744 29.8352V31.2614C74.4744 31.6932 74.554 32.0663 74.7131 32.3807C74.8759 32.6951 75.1051 32.9375 75.4006 33.108C75.696 33.2784 76.0464 33.3636 76.4517 33.3636C76.7206 33.3636 76.9669 33.3258 77.1903 33.25C77.4138 33.1742 77.6051 33.0606 77.7642 32.9091C77.9233 32.7576 78.0445 32.572 78.1278 32.3523L80.3665 32.5C80.2528 33.0379 80.0199 33.5076 79.6676 33.9091C79.3191 34.3068 78.8684 34.6174 78.3153 34.8409C77.7661 35.0606 77.1316 35.1705 76.4119 35.1705ZM90.4688 31.3466L82.4688 34.8693V32.5682L87.946 30.3693L87.8722 30.4886V30.2045L87.946 30.3239L82.4688 28.125V25.8239L90.4688 29.3466V31.3466Z" fill="black"/>
<rect x="21.5" y="60.5" width="672" height="375" stroke="black" stroke-width="3"/>
<path d="M41.4375 90.3466V88.3466L49.4375 84.8239V87.125L43.9602 89.3239L44.0341 89.2045V89.4886L43.9602 89.3693L49.4375 91.5682V93.8693L41.4375 90.3466ZM54.2614 88.9545V94H51.8409V82.3636H54.1932V86.8125H54.2955C54.4924 86.2973 54.8106 85.8939 55.25 85.6023C55.6894 85.3068 56.2405 85.1591 56.9034 85.1591C57.5095 85.1591 58.0379 85.2917 58.4886 85.5568C58.9432 85.8182 59.2955 86.1951 59.5455 86.6875C59.7992 87.1761 59.9242 87.7614 59.9205 88.4432V94H57.5V88.875C57.5038 88.3371 57.3674 87.9186 57.0909 87.6193C56.8182 87.3201 56.4356 87.1705 55.9432 87.1705C55.6136 87.1705 55.322 87.2405 55.0682 87.3807C54.8182 87.5208 54.6212 87.7254 54.4773 87.9943C54.3371 88.2595 54.2652 88.5795 54.2614 88.9545ZM66.2244 82.3636V94H63.7642V84.6989H63.696L61.0312 86.3693V84.1875L63.9119 82.3636H66.2244ZM77.4844 89.2557L69.4844 92.7784V90.4773L74.9616 88.2784L74.8878 88.3977V88.1136L74.9616 88.233L69.4844 86.0341V83.733L77.4844 87.2557V89.2557Z" fill="#91C663"/>
<rect x="41" y="119" width="633" height="77" stroke="#91C663" stroke-width="2"/>
<path d="M41.4375 228.347V226.347L49.4375 222.824V225.125L43.9602 227.324L44.0341 227.205V227.489L43.9602 227.369L49.4375 229.568V231.869L41.4375 228.347ZM51.8409 235.273V223.273H54.2273V224.739H54.3352C54.4413 224.504 54.5947 224.265 54.7955 224.023C55 223.777 55.2652 223.572 55.5909 223.409C55.9205 223.242 56.3295 223.159 56.8182 223.159C57.4545 223.159 58.0417 223.326 58.5795 223.659C59.1174 223.989 59.5473 224.487 59.8693 225.153C60.1913 225.816 60.3523 226.648 60.3523 227.648C60.3523 228.621 60.1951 229.443 59.8807 230.114C59.5701 230.78 59.1458 231.286 58.608 231.631C58.0739 231.972 57.4754 232.142 56.8125 232.142C56.3428 232.142 55.9432 232.064 55.6136 231.909C55.2879 231.754 55.0208 231.559 54.8125 231.324C54.6042 231.085 54.4451 230.845 54.3352 230.602H54.2614V235.273H51.8409ZM54.2102 227.636C54.2102 228.155 54.2822 228.608 54.4261 228.994C54.5701 229.381 54.7784 229.682 55.0511 229.898C55.3239 230.11 55.6553 230.216 56.0455 230.216C56.4394 230.216 56.7727 230.108 57.0455 229.892C57.3182 229.672 57.5246 229.369 57.6648 228.983C57.8087 228.593 57.8807 228.144 57.8807 227.636C57.8807 227.133 57.8106 226.689 57.6705 226.307C57.5303 225.924 57.3239 225.625 57.0511 225.409C56.7784 225.193 56.4432 225.085 56.0455 225.085C55.6515 225.085 55.3182 225.189 55.0455 225.398C54.7765 225.606 54.5701 225.902 54.4261 226.284C54.2822 226.667 54.2102 227.117 54.2102 227.636ZM70.4375 228.347L62.4375 231.869V229.568L67.9148 227.369L67.8409 227.489V227.205L67.9148 227.324L62.4375 225.125V222.824L70.4375 226.347V228.347Z" fill="#6182F8"/>
<rect x="41.5" y="257.5" width="632" height="158" stroke="#6182F8" stroke-width="3"/>
<path d="M61.4375 287.347V285.347L69.4375 281.824V284.125L63.9602 286.324L64.0341 286.205V286.489L63.9602 286.369L69.4375 288.568V290.869L61.4375 287.347ZM71.8409 291V282.273H74.2614V291H71.8409ZM73.0568 281.148C72.697 281.148 72.3883 281.028 72.1307 280.79C71.8769 280.547 71.75 280.258 71.75 279.92C71.75 279.587 71.8769 279.301 72.1307 279.062C72.3883 278.82 72.697 278.699 73.0568 278.699C73.4167 278.699 73.7235 278.82 73.9773 279.062C74.2348 279.301 74.3636 279.587 74.3636 279.92C74.3636 280.258 74.2348 280.547 73.9773 280.79C73.7235 281.028 73.4167 281.148 73.0568 281.148ZM76.2003 291V282.273H78.5071V283.812H78.6094C78.7912 283.301 79.0942 282.898 79.5185 282.602C79.9427 282.307 80.4503 282.159 81.0412 282.159C81.6397 282.159 82.1491 282.309 82.5696 282.608C82.9901 282.903 83.2704 283.305 83.4105 283.812H83.5014C83.6795 283.312 84.0014 282.913 84.4673 282.614C84.937 282.311 85.492 282.159 86.1321 282.159C86.9465 282.159 87.6075 282.419 88.1151 282.938C88.6264 283.453 88.8821 284.184 88.8821 285.131V291H86.4673V285.608C86.4673 285.123 86.3385 284.759 86.081 284.517C85.8234 284.275 85.5014 284.153 85.1151 284.153C84.6757 284.153 84.3329 284.294 84.0866 284.574C83.8404 284.85 83.7173 285.216 83.7173 285.67V291H81.3707V285.557C81.3707 285.129 81.2476 284.788 81.0014 284.534C80.759 284.28 80.4389 284.153 80.0412 284.153C79.7723 284.153 79.5298 284.222 79.3139 284.358C79.1018 284.491 78.9332 284.678 78.8082 284.92C78.6832 285.159 78.6207 285.439 78.6207 285.761V291H76.2003ZM94.7259 294.455C93.9418 294.455 93.2694 294.347 92.7088 294.131C92.152 293.919 91.7088 293.629 91.3793 293.261C91.0497 292.894 90.8357 292.481 90.7372 292.023L92.9759 291.722C93.044 291.896 93.152 292.059 93.2997 292.21C93.4474 292.362 93.6425 292.483 93.8849 292.574C94.1312 292.669 94.4304 292.716 94.7827 292.716C95.3092 292.716 95.7429 292.587 96.0838 292.33C96.4285 292.076 96.6009 291.65 96.6009 291.051V289.455H96.4986C96.3925 289.697 96.2334 289.926 96.0213 290.142C95.8092 290.358 95.5365 290.534 95.2031 290.67C94.8698 290.807 94.4721 290.875 94.0099 290.875C93.3546 290.875 92.758 290.723 92.2202 290.42C91.6861 290.114 91.2599 289.646 90.9418 289.017C90.6274 288.384 90.4702 287.585 90.4702 286.619C90.4702 285.631 90.6312 284.805 90.9531 284.142C91.2751 283.479 91.7031 282.983 92.2372 282.653C92.7751 282.324 93.3641 282.159 94.0043 282.159C94.4929 282.159 94.902 282.242 95.2315 282.409C95.5611 282.572 95.8262 282.777 96.027 283.023C96.2315 283.265 96.3887 283.504 96.4986 283.739H96.5895V282.273H98.9929V291.085C98.9929 291.828 98.8111 292.449 98.4474 292.949C98.0838 293.449 97.58 293.824 96.9361 294.074C96.2959 294.328 95.5592 294.455 94.7259 294.455ZM94.777 289.057C95.1671 289.057 95.4967 288.96 95.7656 288.767C96.0384 288.57 96.2467 288.29 96.3906 287.926C96.5384 287.559 96.6122 287.119 96.6122 286.608C96.6122 286.097 96.5402 285.653 96.3963 285.278C96.2524 284.9 96.044 284.606 95.7713 284.398C95.4986 284.189 95.1671 284.085 94.777 284.085C94.3793 284.085 94.044 284.193 93.7713 284.409C93.4986 284.621 93.2921 284.917 93.152 285.295C93.0118 285.674 92.9418 286.112 92.9418 286.608C92.9418 287.112 93.0118 287.547 93.152 287.915C93.2959 288.278 93.5024 288.561 93.7713 288.761C94.044 288.958 94.3793 289.057 94.777 289.057ZM109.391 287.347L101.391 290.869V288.568L106.868 286.369L106.794 286.489V286.205L106.868 286.324L101.391 284.125V281.824L109.391 285.347V287.347Z" fill="#C6636A"/>
<rect x="61.5" y="316.5" width="254" height="79" stroke="#C6636A" stroke-width="3"/>
<path d="M343.335 352.773L343.034 354.591H337.773L338.08 352.773H343.335ZM339.614 350.682H342.034L340.682 358.818C340.644 359.042 340.65 359.216 340.699 359.341C340.748 359.462 340.83 359.547 340.943 359.597C341.061 359.646 341.201 359.67 341.364 359.67C341.477 359.67 341.593 359.661 341.71 359.642C341.828 359.619 341.917 359.602 341.977 359.591L342.068 361.392C341.932 361.434 341.748 361.479 341.517 361.528C341.29 361.578 341.021 361.608 340.71 361.619C340.119 361.642 339.619 361.564 339.21 361.386C338.801 361.205 338.508 360.926 338.33 360.551C338.152 360.176 338.114 359.705 338.216 359.136L339.614 350.682ZM347.318 361.67C346.424 361.67 345.684 361.489 345.097 361.125C344.509 360.758 344.097 360.239 343.858 359.568C343.623 358.894 343.583 358.097 343.739 357.176C343.89 356.278 344.195 355.491 344.653 354.812C345.116 354.134 345.695 353.606 346.392 353.227C347.089 352.848 347.866 352.659 348.722 352.659C349.297 352.659 349.818 352.752 350.284 352.938C350.754 353.119 351.144 353.396 351.455 353.767C351.765 354.134 351.977 354.595 352.091 355.148C352.208 355.701 352.206 356.348 352.085 357.091L351.977 357.756H344.614L344.847 356.256H349.938C349.994 355.907 349.972 355.598 349.869 355.33C349.767 355.061 349.597 354.85 349.358 354.699C349.119 354.544 348.826 354.466 348.477 354.466C348.121 354.466 347.788 354.553 347.477 354.727C347.167 354.902 346.905 355.131 346.693 355.415C346.485 355.695 346.35 356 346.29 356.33L346.023 357.818C345.947 358.277 345.962 358.657 346.068 358.96C346.178 359.263 346.367 359.491 346.636 359.642C346.905 359.79 347.246 359.864 347.659 359.864C347.928 359.864 348.18 359.826 348.415 359.75C348.653 359.674 348.866 359.562 349.051 359.415C349.237 359.263 349.388 359.076 349.506 358.852L351.716 359C351.511 359.538 351.201 360.008 350.784 360.409C350.367 360.807 349.866 361.117 349.278 361.341C348.695 361.561 348.042 361.67 347.318 361.67ZM356.263 352.773L357.354 355.824L359.507 352.773H361.99L358.734 357.136L360.604 361.5H358.132L356.911 358.483L354.717 361.5H352.217L355.536 357.136L353.763 352.773H356.263ZM368.07 352.773L367.768 354.591H362.507L362.814 352.773H368.07ZM364.348 350.682H366.768L365.416 358.818C365.378 359.042 365.384 359.216 365.433 359.341C365.482 359.462 365.564 359.547 365.678 359.597C365.795 359.646 365.935 359.67 366.098 359.67C366.212 359.67 366.327 359.661 366.445 359.642C366.562 359.619 366.651 359.602 366.712 359.591L366.803 361.392C366.666 361.434 366.482 361.479 366.251 361.528C366.024 361.578 365.755 361.608 365.445 361.619C364.854 361.642 364.354 361.564 363.945 361.386C363.536 361.205 363.242 360.926 363.064 360.551C362.886 360.176 362.848 359.705 362.95 359.136L364.348 350.682ZM372.053 361.67C371.159 361.67 370.418 361.489 369.831 361.125C369.244 360.758 368.831 360.239 368.592 359.568C368.357 358.894 368.318 358.097 368.473 357.176C368.625 356.278 368.929 355.491 369.388 354.812C369.85 354.134 370.429 353.606 371.126 353.227C371.823 352.848 372.6 352.659 373.456 352.659C374.032 352.659 374.553 352.752 375.018 352.938C375.488 353.119 375.878 353.396 376.189 353.767C376.5 354.134 376.712 354.595 376.825 355.148C376.943 355.701 376.941 356.348 376.82 357.091L376.712 357.756H369.348L369.581 356.256H374.672C374.729 355.907 374.706 355.598 374.604 355.33C374.501 355.061 374.331 354.85 374.092 354.699C373.854 354.544 373.56 354.466 373.212 354.466C372.856 354.466 372.522 354.553 372.212 354.727C371.901 354.902 371.64 355.131 371.428 355.415C371.219 355.695 371.085 356 371.024 356.33L370.757 357.818C370.681 358.277 370.696 358.657 370.803 358.96C370.912 359.263 371.102 359.491 371.371 359.642C371.64 359.79 371.981 359.864 372.393 359.864C372.662 359.864 372.914 359.826 373.149 359.75C373.388 359.674 373.6 359.562 373.786 359.415C373.971 359.263 374.123 359.076 374.24 358.852L376.45 359C376.246 359.538 375.935 360.008 375.518 360.409C375.102 360.807 374.6 361.117 374.013 361.341C373.429 361.561 372.776 361.67 372.053 361.67Z" fill="#B2B2B2"/>
</svg>
